<svg width="20" height="20" viewBox="0 0 20 20" fill="none" xmlns="http://www.w3.org/2000/svg">
<path fill-rule="evenodd" clip-rule="evenodd" d="M16.0005 16.708C14.3521 18.1869 12.2146 19.0034 10 19C5.0295 19 1 14.9705 1 10C1 7.631 1.915 5.476 3.4115 3.8685L4.8965 5.3535C4.9908 5.44458 5.1171 5.49498 5.2482 5.49384C5.3793 5.4927 5.5047 5.44011 5.59741 5.34741C5.69011 5.25471 5.7427 5.1293 5.74384 4.9982C5.74498 4.8671 5.69458 4.7408 5.6035 4.6465L4.1325 3.1755C5.76353 1.7691 7.84635 0.996854 10 1C14.9705 1 19 5.0295 19 10C19 12.305 18.133 14.4085 16.708 16.0005L13.811 13.104C13.9362 12.7387 14 12.3552 14 11.969V11C14 10.8915 13.9647 10.7859 13.8994 10.6992C13.834 10.6125 13.7423 10.5495 13.638 10.5195C13.8761 10.0375 14 9.50711 14 8.9695V8C14 7.91619 13.9789 7.83371 13.9388 7.76017C13.8986 7.68662 13.8405 7.62436 13.77 7.5791C13.6994 7.53385 13.6186 7.50705 13.535 7.50118C13.4514 7.49531 13.3677 7.51055 13.2915 7.5455L13.2615 7.559C13.419 7.15445 13.4999 6.72413 13.5 6.29V5.5C13.5 5.41901 13.4802 5.33924 13.4426 5.26755C13.4049 5.19587 13.3503 5.13441 13.2836 5.08847C13.2169 5.04253 13.1401 5.01348 13.0597 5.00381C12.9792 4.99415 12.8977 5.00417 12.822 5.033L11.754 5.4395C11.712 5.45536 11.6703 5.47203 11.629 5.4895C11.6102 4.59048 11.2801 3.72583 10.695 3.043L10.38 2.6745C10.3331 2.61961 10.2748 2.57554 10.2092 2.54532C10.1436 2.51511 10.0722 2.49946 10 2.49946C9.92778 2.49946 9.85641 2.51511 9.79081 2.54532C9.72521 2.57554 9.66694 2.61961 9.62 2.6745L9.305 3.0425C8.71952 3.72553 8.38923 4.59058 8.3705 5.49C8.32932 5.47254 8.28782 5.45587 8.246 5.44L7.178 5.0325C7.10228 5.00365 7.02068 4.99364 6.94022 5.00333C6.85977 5.01302 6.78288 5.04211 6.71617 5.08811C6.64946 5.13411 6.59493 5.19564 6.55727 5.26739C6.51961 5.33914 6.49996 5.41897 6.5 5.5V6.29C6.5 6.733 6.5835 7.162 6.738 7.559L6.7085 7.5455C6.63232 7.51055 6.54858 7.49531 6.46497 7.50118C6.38136 7.50705 6.30057 7.53385 6.23003 7.5791C6.15948 7.62436 6.10144 7.68662 6.06125 7.76017C6.02105 7.83371 5.99999 7.91619 6 8V8.9695C6.00002 9.50711 6.12389 10.0375 6.362 10.5195C6.25769 10.5495 6.16595 10.6125 6.10065 10.6992C6.03534 10.7859 6.00002 10.8915 6 11V11.9695C6.00014 12.6391 6.19236 13.2946 6.55386 13.8583C6.91536 14.422 7.43097 14.8701 8.0395 15.1495L9.5 15.821V17H10.5V15.8205L11.9605 15.15C12.5037 14.9006 12.974 14.5162 13.3265 14.0335L16.0005 16.708ZM20 10C20 15.523 15.523 20 10 20C4.477 20 0 15.523 0 10C0 4.477 4.477 0 10 0C15.523 0 20 4.477 20 10ZM10 3.771C10.2692 4.10826 10.4593 4.50161 10.5563 4.92207C10.6533 5.34254 10.6547 5.7794 10.5605 6.2005C10.3435 6.4115 10.1555 6.649 10 6.9075C9.84445 6.64864 9.65605 6.411 9.4395 6.2005C9.34529 5.7794 9.34674 5.34254 9.44374 4.92207C9.54075 4.50161 9.73083 4.10826 10 3.771ZM9.5 8.7745V8.7105C9.50006 8.20376 9.34612 7.70897 9.0586 7.29171C8.77108 6.87444 8.36354 6.5544 7.89 6.374L7.5 6.2255V6.2895C7.49994 6.79624 7.65388 7.29103 7.9414 7.70829C8.22892 8.12556 8.63646 8.4456 9.11 8.626L9.5 8.7745ZM10.5 8.7745L10.89 8.626C11.3635 8.4456 11.7711 8.12556 12.0586 7.70829C12.3461 7.29103 12.5001 6.79624 12.5 6.2895V6.2255L12.11 6.374C11.6365 6.5544 11.2289 6.87444 10.9414 7.29171C10.6539 7.70897 10.4999 8.20376 10.5 8.7105V8.7745ZM10.5 11.0535C10.5 10.3675 10.9 9.744 11.523 9.458L13 8.78V8.9695C12.9999 9.44778 12.8627 9.91601 12.6045 10.3186C12.3464 10.7212 11.9781 11.0414 11.5435 11.241L10.5 11.72V11.0535ZM8.0435 9.2585C8.47828 9.45821 8.84662 9.77848 9.10479 10.1813C9.36297 10.5841 9.50013 11.0525 9.5 11.531V11.721L8.4565 11.2415C8.02188 11.0419 7.65364 10.7217 7.39547 10.3191C7.13731 9.91651 7.00006 9.44828 7 8.97V8.78L8.0435 9.2585ZM9.5 14.72V14.531C9.50004 14.0526 9.36283 13.5843 9.10466 13.1816C8.84649 12.7789 8.4782 12.4587 8.0435 12.259L7 11.78V11.9695C7.00006 12.4478 7.13731 12.916 7.39547 13.3186C7.65364 13.7212 8.02188 14.0414 8.4565 14.241L9.5 14.72ZM10.5 14.72L11.5435 14.241C11.978 14.0414 12.3462 13.7214 12.6044 13.3188C12.8625 12.9163 12.9998 12.4482 13 11.97V11.78L11.523 12.4585C11.2177 12.5986 10.9591 12.8233 10.7777 13.1061C10.5964 13.3888 10.5 13.7176 10.5 14.0535V14.72Z" fill="white"/>
</svg>
