<svg width="20" height="20" viewBox="0 0 20 20" fill="none" xmlns="http://www.w3.org/2000/svg">
<path d="M11.6928 9.35417C9.90356 11.2282 8.11356 15.8281 8.11356 15.8281C8.11356 15.8281 5.55642 9.35417 3 7.85974" stroke="black" stroke-width="1.3" stroke-linecap="round" stroke-linejoin="round"/>
<path d="M15.6741 5.38007L15.9827 8.58481C16.1826 10.6638 14.6244 12.5147 12.5454 12.7153C10.5055 12.9109 8.65754 11.4201 8.46123 9.3802C8.41427 8.89509 8.46338 8.40548 8.60575 7.93936C8.74813 7.47325 8.98098 7.03976 9.29099 6.66369C9.601 6.28761 9.98209 5.97633 10.4125 5.74762C10.8429 5.51892 11.3141 5.37728 11.7993 5.33081L15.2156 5.00194C15.2705 4.99664 15.3259 5.00222 15.3787 5.01836C15.4315 5.0345 15.4806 5.06089 15.5232 5.096C15.5658 5.13112 15.601 5.17428 15.6269 5.22302C15.6528 5.27176 15.6688 5.32513 15.6741 5.38007Z" stroke="black" stroke-width="1.3" stroke-linecap="round" stroke-linejoin="round"/>
<circle cx="10" cy="10" r="9.5" stroke="black"/>
</svg>
