<svg width="20" height="20" viewBox="0 0 20 20" fill="none" xmlns="http://www.w3.org/2000/svg">
<path d="M11.4223 9.21693C10.1004 10.6015 8.77791 14.0001 8.77791 14.0001C8.77791 14.0001 6.88869 9.21693 5 8.11279" stroke="#404336" stroke-width="1.3" stroke-linecap="round" stroke-linejoin="round"/>
<path d="M14.3641 6.28081L14.5921 8.64859C14.7398 10.1846 13.5886 11.5521 12.0526 11.7004C10.5455 11.8449 9.18025 10.7434 9.03521 9.23625C9.00052 8.87783 9.0368 8.51609 9.14199 8.17171C9.24718 7.82732 9.41921 7.50705 9.64824 7.22919C9.87728 6.95133 10.1588 6.72134 10.4768 6.55237C10.7948 6.3834 11.1429 6.27875 11.5014 6.24442L14.0253 6.00143C14.0659 5.99752 14.1069 6.00164 14.1459 6.01357C14.1849 6.02549 14.2211 6.04498 14.2526 6.07093C14.2841 6.09687 14.3101 6.12876 14.3292 6.16478C14.3484 6.20079 14.3602 6.24022 14.3641 6.28081Z" stroke="#404336" stroke-width="1.3" stroke-linecap="round" stroke-linejoin="round"/>
<circle cx="10" cy="10" r="9.5" stroke="#404336"/>
</svg>
