<svg width="20" height="20" viewBox="0 0 20 20" fill="none" xmlns="http://www.w3.org/2000/svg">
<path d="M11.6928 9.3543C9.90356 11.2283 8.11356 15.8282 8.11356 15.8282C8.11356 15.8282 5.55642 9.3543 3 7.85986" stroke="#404336" stroke-width="1.3" stroke-linecap="round" stroke-linejoin="round"/>
<path d="M15.6745 5.38007L15.9831 8.58481C16.183 10.6638 14.6248 12.5147 12.5458 12.7153C10.5059 12.9109 8.65791 11.4201 8.46159 9.3802C8.41463 8.89509 8.46374 8.40548 8.60612 7.93936C8.7485 7.47325 8.98135 7.03976 9.29136 6.66369C9.60137 6.28761 9.98246 5.97633 10.4128 5.74762C10.8432 5.51892 11.3145 5.37728 11.7996 5.33081L15.2159 5.00194C15.2709 4.99664 15.3263 5.00222 15.3791 5.01836C15.4319 5.0345 15.481 5.06089 15.5235 5.096C15.5661 5.13112 15.6014 5.17428 15.6273 5.22302C15.6532 5.27176 15.6692 5.32513 15.6745 5.38007Z" stroke="#404336" stroke-width="1.3" stroke-linecap="round" stroke-linejoin="round"/>
<circle cx="10" cy="10" r="9.5" stroke="#404336"/>
</svg>
