<svg width="25" height="25" viewBox="0 0 25 25" fill="none" xmlns="http://www.w3.org/2000/svg">
<g clip-path="url(#clip0_236_1963)">
<mask id="mask0_236_1963" style="mask-type:luminance" maskUnits="userSpaceOnUse" x="0" y="0" width="25" height="25">
<path d="M12.5 25C19.4036 25 25 19.4036 25 12.5C25 5.59644 19.4036 0 12.5 0C5.59644 0 0 5.59644 0 12.5C0 19.4036 5.59644 25 12.5 25Z" fill="white"/>
</mask>
<g mask="url(#mask0_236_1963)">
<path d="M0 0H25V25H0V0Z" fill="#009B3A"/>
</g>
<path d="M2.72729 12.7874L12.7872 19.2112L22.8471 12.7874L12.7872 6.36365L2.72729 12.7874Z" fill="#FEDF00"/>
<path d="M12.4239 17.1206C14.7667 17.1206 16.666 15.2213 16.666 12.8785C16.666 10.5356 14.7667 8.63635 12.4239 8.63635C10.081 8.63635 8.18176 10.5356 8.18176 12.8785C8.18176 15.2213 10.081 17.1206 12.4239 17.1206Z" fill="#002776"/>
<mask id="mask1_236_1963" style="mask-type:luminance" maskUnits="userSpaceOnUse" x="8" y="8" width="9" height="10">
<path d="M12.4239 17.1206C14.7667 17.1206 16.666 15.2213 16.666 12.8785C16.666 10.5356 14.7667 8.63635 12.4239 8.63635C10.081 8.63635 8.18176 10.5356 8.18176 12.8785C8.18176 15.2213 10.081 17.1206 12.4239 17.1206Z" fill="white"/>
</mask>
<g mask="url(#mask1_236_1963)">
<path d="M-0.30249 21.3627C-0.30249 15.6729 4.31003 11.0604 9.99981 11.0604C15.6896 11.0604 20.3021 15.6729 20.3021 21.3627H19.6961C19.6961 16.0076 15.3549 11.6664 9.99981 11.6664C4.64471 11.6664 0.303527 16.0076 0.303527 21.3627H-0.30249Z" fill="white"/>
</g>
<path d="M10.16 11.565L10.5234 11.5777L10.5261 11.5027L10.2319 11.4925L10.2355 11.3886L10.4662 11.3967L10.4686 11.3275L10.2378 11.3194L10.2407 11.2387L10.5175 11.2484L10.5202 11.1734L10.1741 11.1613L10.16 11.565ZM10.6726 11.5868L10.7416 11.5929L10.7657 11.317L10.822 11.6L10.8853 11.6055L10.99 11.3366L10.9658 11.6125L11.0348 11.6186L11.07 11.2161L10.9694 11.2073L10.8648 11.4762L10.8085 11.1932L10.7079 11.1844L10.6726 11.5868ZM11.5096 11.6813L11.8082 11.7326L11.82 11.6643L11.5896 11.6247L11.6053 11.5338L11.793 11.566L11.8047 11.4977L11.617 11.4655L11.6277 11.4029L11.851 11.4413L11.8627 11.373L11.5712 11.3229L11.5096 11.6813ZM14.1322 12.3175L13.9919 12.2564L14.0242 12.1824L14.1644 12.2434L14.1322 12.3175Z" fill="#009B3A"/>
<path d="M14.0717 12.4498L13.9976 12.4175L14.0782 12.2323L14.1523 12.2646L14.0717 12.4498ZM15.2554 12.9439C15.2337 12.978 15.2557 13.016 15.3044 13.0469C15.353 13.0779 15.3862 13.0768 15.4002 13.0549C15.4444 12.9855 15.1889 12.8844 15.2676 12.7635C15.3355 12.6595 15.4517 12.7404 15.4955 12.7683C15.5393 12.7962 15.6096 12.8684 15.5549 12.9516L15.4807 12.9042C15.504 12.8677 15.4784 12.8326 15.4395 12.8078C15.4017 12.7838 15.3711 12.7728 15.3486 12.8081C15.3109 12.8645 15.5613 12.971 15.4846 13.0914C15.428 13.1802 15.3295 13.1415 15.2638 13.0996C15.2078 13.064 15.1242 12.9798 15.1787 12.8948L15.2554 12.9439ZM14.666 12.7461L14.9824 12.9251L15.0193 12.8599L14.7631 12.7149L14.8142 12.6245L15.0152 12.7382L15.0493 12.6779L14.8483 12.5642L14.8882 12.4939L15.1293 12.6303L15.1662 12.565L14.8648 12.3945L14.666 12.7461ZM15.6888 13.2305C15.6654 13.2634 15.6854 13.3025 15.7324 13.3359C15.7793 13.3695 15.8125 13.37 15.8276 13.349C15.8754 13.282 15.6256 13.1676 15.7106 13.051C15.7838 12.9508 15.8956 13.0375 15.9379 13.0678C15.9801 13.098 16.0466 13.1737 15.9876 13.2539L15.916 13.2029C15.9411 13.1676 15.9174 13.1313 15.8798 13.1044C15.8434 13.0785 15.8134 13.0659 15.7891 13.1C15.7485 13.1544 15.9931 13.2738 15.9101 13.3901C15.8489 13.4758 15.7526 13.4319 15.6892 13.3867C15.6351 13.3481 15.556 13.2598 15.6148 13.1778L15.6888 13.2305ZM8.96163 11.4158C8.94806 11.3051 8.85618 11.2252 8.75655 11.2375C8.65692 11.2497 8.58711 11.3494 8.60069 11.4602C8.61426 11.571 8.70613 11.6507 8.80576 11.6385C8.90539 11.6263 8.97521 11.5266 8.96163 11.4158ZM8.7812 11.3151C8.91848 11.3151 8.91848 11.5613 8.7812 11.5613C8.64392 11.5613 8.64384 11.3151 8.7812 11.3151ZM16.4055 13.6308C16.4569 13.5317 16.4262 13.4139 16.337 13.3678C16.2479 13.3216 16.134 13.3645 16.0827 13.4635C16.0314 13.5626 16.0621 13.6803 16.1512 13.7265C16.2404 13.7727 16.3542 13.7298 16.4055 13.6308ZM16.3136 13.4457C16.427 13.5232 16.2878 13.7265 16.1745 13.6488C16.0612 13.5712 16.2003 13.3681 16.3136 13.4457ZM9.97627 11.2382C9.93174 11.1665 9.84197 11.1631 9.84197 11.1631L9.63997 11.1662L9.647 11.5702C9.647 11.5702 9.80723 11.5702 9.84981 11.5662C9.89239 11.5622 9.94241 11.5376 9.97513 11.4947C10.0078 11.4517 10.0075 11.4009 10.0072 11.3696C10.007 11.3383 10.0119 11.2956 9.97627 11.2382ZM9.81143 11.4934C9.7804 11.4934 9.72069 11.4938 9.72069 11.4938L9.71624 11.2399C9.79979 11.2388 9.8027 11.2388 9.8351 11.2388C9.89506 11.2398 9.92035 11.2845 9.93296 11.3135C9.93748 11.3457 9.93772 11.3587 9.93877 11.3866C9.93506 11.4166 9.92617 11.4413 9.90088 11.465C9.85926 11.4929 9.83826 11.4934 9.81143 11.4934ZM9.42447 11.4131C9.42447 11.4131 9.46673 11.3774 9.47755 11.3262C9.48846 11.2751 9.45679 11.2333 9.44337 11.2213C9.42996 11.2094 9.40176 11.181 9.36007 11.1826C9.31837 11.1843 9.11257 11.1986 9.11257 11.1986L9.13503 11.6021L9.20986 11.5968L9.19943 11.4471L9.32936 11.438L9.36063 11.4358C9.36063 11.4358 9.40087 11.5016 9.40467 11.5423C9.40726 11.5662 9.40693 11.5865 9.40693 11.5865H9.4799C9.4799 11.5865 9.48176 11.5147 9.46099 11.4716C9.44022 11.4285 9.42447 11.4131 9.42447 11.4131ZM9.37897 11.3503C9.36322 11.3635 9.31902 11.364 9.31902 11.364L9.1941 11.3722L9.18683 11.2685C9.20582 11.2687 9.30512 11.2603 9.3069 11.2603C9.32694 11.2596 9.34948 11.2576 9.34948 11.2576C9.34948 11.2576 9.3658 11.2582 9.38213 11.2723C9.38736 11.2765 9.39156 11.2817 9.3944 11.2878C9.39723 11.2938 9.39862 11.3004 9.39845 11.3071C9.39796 11.3277 9.38625 11.3463 9.37897 11.3503ZM13.6916 12.0275C13.7069 11.917 13.6386 11.8162 13.5392 11.8026C13.4398 11.7888 13.3468 11.8673 13.3315 11.9777C13.3162 12.0883 13.3845 12.189 13.4839 12.2027C13.5833 12.2164 13.6764 12.138 13.6916 12.0275ZM13.543 11.8838C13.6758 11.919 13.6126 12.157 13.4799 12.1217C13.3472 12.0865 13.4104 11.8485 13.543 11.8838ZM13.1112 11.8708C13.1112 11.8708 13.1627 11.8507 13.1897 11.806C13.2167 11.7613 13.2004 11.7114 13.1916 11.6957C13.1829 11.68 13.1655 11.644 13.1256 11.6319C13.0461 11.6094 12.9664 11.5875 12.8865 11.566L12.7757 11.9546L12.8482 11.9742L12.8873 11.8293L13.0131 11.8632L13.0433 11.8714C13.0433 11.8714 13.0598 11.9468 13.0501 11.9864C13.0468 12.0008 13.0427 12.015 13.0378 12.029L13.1066 12.0528C13.1066 12.0528 13.1319 11.9855 13.1263 11.9381C13.1208 11.8905 13.1112 11.8708 13.1112 11.8708ZM13.0887 11.7966C13.0695 11.8038 13.0275 11.7899 13.0275 11.7899L12.9067 11.7568L12.9338 11.6565C12.9517 11.6628 13.0482 11.6875 13.05 11.688C13.0691 11.694 13.0911 11.6995 13.0911 11.6995C13.0911 11.6995 13.1064 11.7053 13.1171 11.724C13.1207 11.7296 13.123 11.736 13.1237 11.7426C13.1244 11.7492 13.1235 11.7559 13.1212 11.7622C13.114 11.7814 13.0968 11.7952 13.0887 11.7966ZM14.5785 12.4653C14.5785 12.4653 14.6316 12.4498 14.6623 12.4074C14.693 12.3651 14.6811 12.314 14.6736 12.2977C14.6662 12.2814 14.652 12.244 14.6133 12.2285C14.5745 12.213 14.3806 12.1427 14.3806 12.1427L14.2373 12.5205L14.3078 12.5461L14.359 12.405L14.4814 12.4495L14.5109 12.4601C14.5109 12.4601 14.5209 12.5366 14.508 12.5753C14.5006 12.5982 14.4921 12.6166 14.4921 12.6166L14.5586 12.6462C14.5586 12.6462 14.5895 12.5813 14.5881 12.5336C14.5864 12.4859 14.5785 12.4653 14.5785 12.4653ZM14.5624 12.3895C14.5426 12.3951 14.5021 12.3776 14.5021 12.3776L14.3846 12.3345L14.42 12.2368C14.4372 12.2446 14.5314 12.2773 14.5331 12.278C14.5517 12.2855 14.5731 12.2929 14.5731 12.2929C14.5731 12.2929 14.5877 12.3 14.5969 12.3195C14.6001 12.3254 14.6018 12.332 14.6019 12.3386C14.602 12.3453 14.6006 12.3519 14.5978 12.3579C14.5889 12.3765 14.5707 12.3888 14.5624 12.3895ZM12.6141 11.7359C12.6141 11.7359 12.6651 11.7146 12.6911 11.6692C12.717 11.6238 12.6995 11.5744 12.6904 11.5589C12.6812 11.5433 12.663 11.5078 12.6229 11.4966C12.5826 11.4855 12.3822 11.4366 12.3822 11.4366L12.2808 11.8277L12.3537 11.8455L12.3893 11.6997L12.5158 11.7306L12.5463 11.738L12.6141 11.7359ZM12.5899 11.6623C12.5709 11.67 12.5286 11.657 12.5286 11.657L12.4071 11.6269L12.4318 11.526C12.4498 11.5319 12.547 11.5542 12.5487 11.5547C12.568 11.5601 12.5901 11.5652 12.5901 11.5652C12.5901 11.5652 12.6054 11.5707 12.6166 11.5891C12.6204 11.5946 12.6228 11.6009 12.6237 11.6075C12.6245 11.6141 12.6238 11.6208 12.6217 11.6271C12.6148 11.6465 12.5979 11.6607 12.5899 11.6623Z" fill="#009B3A"/>
<path d="M14.1169 12.2464C14.1065 12.2418 14.0956 12.2386 14.0847 12.2352C14.0531 12.2948 13.9832 12.3372 13.9209 12.2945C13.8075 12.217 13.9466 12.0138 14.0599 12.0914C14.0873 12.1101 14.0997 12.1361 14.1015 12.1638C14.1187 12.171 14.1372 12.1744 14.1544 12.1823L14.176 12.1924C14.1818 12.118 14.1481 12.0469 14.0834 12.0135C13.9943 11.9673 13.8804 12.0102 13.8291 12.1091C13.7778 12.2082 13.8084 12.3259 13.8976 12.3722C13.9867 12.4184 14.1006 12.3755 14.152 12.2765C14.1539 12.2726 14.1557 12.2686 14.1574 12.2646L14.1169 12.2464Z" fill="#009B3A"/>
<path d="M13.8989 11.5074L13.8091 11.5725L13.8435 11.6781L13.7536 11.6128L13.6639 11.6781L13.6982 11.5725L13.6084 11.5074H13.7194L13.7536 11.4019L13.788 11.5074H13.8989ZM8.78807 12.0604L8.89489 12.138L8.85409 12.2637L8.96099 12.186L9.06781 12.2637L9.02701 12.138L9.13391 12.0604H9.0018L8.96099 11.9348L8.92019 12.0604H8.78807ZM13.4659 12.6274L13.5398 12.6811L13.5116 12.7681L13.5856 12.7143L13.6595 12.7681L13.6312 12.6811L13.7052 12.6274H13.6138L13.5856 12.5404L13.5577 12.6274H13.4659ZM9.67545 13.6226L9.72069 13.6543L9.70324 13.7082L9.74825 13.6755L9.79317 13.7082L9.77596 13.6553L9.82097 13.6226H9.76538L9.74825 13.5697L9.73104 13.6226H9.67545ZM9.33543 13.7182L9.29519 13.8438H9.16324L9.27006 13.9214L9.22925 14.0471L9.33616 13.9694L9.44298 14.0471L9.40217 13.9214L9.50907 13.8438H9.37696L9.33616 13.7182M8.67261 14.2341L8.76165 14.2988L8.72763 14.4035L8.81668 14.3388L8.90572 14.4035L8.8717 14.2989L8.96075 14.2341H8.8507L8.81668 14.1294L8.78266 14.2341H8.67261ZM10.6693 13.002L10.7566 13.0653L10.7232 13.168L10.8105 13.1045L10.8977 13.168L10.8644 13.0653L10.9517 13.002H10.8438L10.8105 12.8994L10.7772 13.002H10.6693ZM10.0988 14.2689L10.1792 14.3274L10.1485 14.422L10.229 14.3635L10.3095 14.422L10.2787 14.3274L10.3593 14.2689H10.2598L10.229 14.1743L10.1983 14.2689H10.0988ZM9.9791 14.7128L10.0531 14.7665L10.0248 14.8535L10.0988 14.7998L10.1728 14.8535L10.1445 14.7665L10.2184 14.7128H10.127L10.0988 14.6259L10.071 14.7128H9.9791ZM10.552 15.0506L10.6589 15.1283L10.6181 15.2539L10.7249 15.1763L10.8318 15.2539L10.7909 15.1283L10.8978 15.0506H10.7657L10.7249 14.9251L10.6841 15.0506H10.552ZM12.2787 13.5278L12.3684 13.593L12.3342 13.6986L12.4239 13.6333L12.5137 13.6986L12.4794 13.593L12.5691 13.5278H12.4577L12.4239 13.4223L12.3897 13.5278H12.2787ZM11.8755 13.9099L11.9495 13.9636L11.9213 14.0506L11.995 13.9967L12.0691 14.0506L12.0409 13.9636L12.1148 13.9099H12.0234L11.9952 13.8229L11.9669 13.9099H11.8755ZM12.1347 14.2024L12.1797 14.2351L12.1625 14.288L12.2075 14.2553L12.2525 14.288L12.2353 14.235L12.2803 14.2024H12.2247L12.2075 14.1495L12.1903 14.2024H12.1347ZM12.769 13.8986L12.8587 13.9638L12.8245 14.0693L12.9142 14.004L13.004 14.0693L12.9697 13.9638L13.0594 13.8986H12.9485L12.9142 13.793L12.8805 13.8986H12.769ZM12.251 14.7459L12.3579 14.8235L12.317 14.9492L12.4239 14.8715L12.5308 14.9492L12.49 14.8235L12.5969 14.7459H12.4647L12.4239 14.6203L12.3837 14.7459H12.251ZM12.3658 16.1789L12.4001 16.2038L12.387 16.2441L12.4213 16.2192L12.4555 16.2441L12.4424 16.2038L12.4767 16.1789H12.4344L12.4213 16.1387L12.4083 16.1789H12.3658ZM13.2382 15.2207L13.3122 15.2745L13.2839 15.3614L13.3579 15.3077L13.4319 15.3614L13.4036 15.2745L13.4775 15.2207H13.3861L13.3579 15.1338L13.3301 15.2207H13.2382ZM13.5467 15.6864L13.6365 15.7516L13.6021 15.8571L13.6919 15.7918L13.7817 15.8571L13.7474 15.7516L13.8372 15.6864H13.7262L13.6919 15.5809L13.6576 15.6864H13.5467ZM14.1048 15.3709L14.1787 15.3171H14.0873L14.0591 15.2302L14.0313 15.3171H13.9394L14.0134 15.3709L13.9851 15.4578L14.0591 15.4041L14.1331 15.4578L14.1048 15.3709ZM14.4112 15.1763L14.4851 15.23L14.4569 15.317L14.5309 15.2632L14.6048 15.317L14.5765 15.23L14.6504 15.1763H14.5591L14.5309 15.0894L14.5026 15.1763H14.4112ZM14.3965 15.5775L14.4863 15.6426L14.4519 15.7482L14.5417 15.6829L14.6315 15.7482L14.5972 15.6426L14.687 15.5775H14.576L14.5417 15.472L14.5074 15.5775H14.3965ZM14.4321 16.0205L14.5061 16.0743L14.4779 16.1612L14.5518 16.1075L14.6257 16.1612L14.5975 16.0743L14.6715 16.0205H14.5797L14.5518 15.9336L14.524 16.0205H14.4321ZM14.8544 15.2522L14.9283 15.3059L14.9001 15.3928L14.9741 15.3391L15.048 15.3928L15.0198 15.3059L15.0937 15.2522H15.0023L14.9741 15.1653L14.9458 15.2522H14.8544ZM15.1683 15.0325L15.2581 15.0977L15.2238 15.2032L15.3136 15.1379L15.4034 15.2032L15.369 15.0977L15.4588 15.0325H15.3479L15.3135 14.9269L15.2798 15.0325L15.1709 15.0319M15.4232 14.7015L15.513 14.7666L15.4788 14.8722L15.5685 14.8069L15.6583 14.8722L15.624 14.7667L15.7137 14.7015H15.6028L15.5685 14.596L15.5342 14.7015H15.4232ZM15.2227 14.3082L15.3295 14.3858L15.2887 14.5115L15.3956 14.4338L15.5024 14.5115L15.4616 14.3858L15.5685 14.3082H15.4364L15.3956 14.1826L15.3547 14.3082H15.2227ZM15.8699 14.3722L15.9438 14.426L15.9156 14.5129L15.9896 14.4592L16.0635 14.5129L16.0352 14.426L16.1093 14.3722H16.0179L15.9896 14.2853L15.9618 14.3722H15.8699Z" fill="white"/>
</g>
<defs>
<clipPath id="clip0_236_1963">
<rect width="25" height="25" fill="white"/>
</clipPath>
</defs>
</svg>
