<svg width="31" height="32" viewBox="0 0 31 32" fill="none" xmlns="http://www.w3.org/2000/svg">
<g filter="url(#filter0_dd_496_6789)">
<circle cx="15.5" cy="12.5" r="11.5" fill="#D9D9D9"/>
</g>
<g clip-path="url(#clip0_496_6789)">
<path d="M3.78125 12.5C3.78125 14.8047 4.44531 16.9531 5.57812 18.75H25.3828C26.5156 16.9531 27.1797 14.8047 27.1797 12.5C27.1797 10.1953 26.5156 8.04687 25.3828 6.25H5.57812C4.44531 8.04687 3.78125 10.1953 3.78125 12.5Z" fill="#F9F9F9"/>
<path d="M25.4219 6.25C23.3516 2.96875 19.6797 0.78125 15.5 0.78125C11.3203 0.78125 7.64844 2.96875 5.57812 6.25H25.4219ZM5.57812 18.75C7.64844 22.0312 11.3203 24.2188 15.5 24.2188C19.6797 24.2188 23.3516 22.0312 25.4219 18.75H5.57812Z" fill="#B4D7EE"/>
<path d="M20.8516 12.4219L17.6484 12.3047V12.2656C18.1563 12.1875 18.5469 11.875 19.0938 11.9141C19.7578 11.9922 20.1484 11.6016 20.3828 11.5234C20.6563 11.4453 20.8125 11.6016 20.8125 11.5234C20.8516 11.4453 20.6563 11.2891 20.2656 11.3281C19.9141 11.3672 19.7969 11.6797 18.9766 11.6016C18.2734 11.5625 18.0391 11.8359 17.5313 11.8359V11.7969L20.4219 10.4687C20.4219 10.4687 20.5 10.4297 20.5 10.3516C20.4609 10.2734 20.3828 10.3125 20.3828 10.3125L17.4531 11.4844V11.4453C17.8828 11.1719 18.1172 10.7422 18.6641 10.5859C19.2891 10.3906 19.5234 9.92187 19.7187 9.72656C19.9141 9.53125 20.1484 9.64844 20.1484 9.57031C20.1484 9.49219 19.9141 9.41406 19.6016 9.60938C19.2891 9.80469 19.2891 10.1172 18.5078 10.3516C17.8438 10.5469 17.7266 10.8984 17.2578 11.1328L17.2188 11.0937L19.4063 8.75C19.4063 8.75 19.4844 8.67188 19.4453 8.63281C19.4062 8.59375 19.3281 8.67188 19.3281 8.67188L16.9844 10.8594L16.9453 10.8203C17.2578 10.3906 17.2969 9.92187 17.7266 9.57031C18.2344 9.14062 18.2344 8.63281 18.3516 8.39844C18.4687 8.16406 18.7031 8.16406 18.6641 8.08594C18.625 8.00781 18.3906 8.04687 18.1562 8.32031C17.9219 8.63281 18.0391 8.90625 17.4531 9.41406C16.9453 9.84375 16.9453 10.2344 16.6328 10.5859C16.6328 10.5859 16.5937 10.5859 16.5937 10.5469L17.6875 7.53906C17.6875 7.53906 17.7266 7.46094 17.6484 7.42188C17.5703 7.38281 17.5313 7.5 17.5313 7.5L16.2031 10.3906H16.1641C16.2813 9.88281 16.1641 9.41406 16.3984 8.94531C16.7109 8.35937 16.5156 7.85156 16.5156 7.61719C16.5547 7.34375 16.75 7.26563 16.7109 7.22656C16.6719 7.14844 16.4375 7.30469 16.3203 7.65625C16.2422 8.00781 16.4375 8.24219 16.0859 8.94531C15.7734 9.57031 15.9297 9.88281 15.7734 10.3516H15.7344L15.6172 7.14844C15.6172 7.14844 15.6172 7.03125 15.5391 7.03125C15.4609 7.03125 15.4609 7.14844 15.4609 7.14844L15.3438 10.3516H15.3047C15.2266 9.84375 14.9141 9.45312 14.9531 8.90625C15.0313 8.24219 14.6406 7.85156 14.5625 7.61719C14.4844 7.38281 14.6406 7.1875 14.5625 7.1875C14.4844 7.14844 14.3281 7.34375 14.3672 7.73437C14.4063 8.08594 14.7187 8.20313 14.6406 9.02344C14.6016 9.72656 14.875 9.96094 14.875 10.4687H14.8359L13.5078 7.57812C13.5078 7.57812 13.4688 7.5 13.3906 7.5C13.3125 7.53906 13.3516 7.61719 13.3516 7.61719L14.4453 10.625H14.4063C14.1328 10.1953 13.7031 9.96094 13.5469 9.41406C13.3516 8.78906 12.8828 8.55469 12.6875 8.35937C12.4922 8.16406 12.6094 7.92969 12.5312 7.92969C12.4531 7.92969 12.375 8.16406 12.5703 8.47656C12.7656 8.78906 13.0781 8.78906 13.3125 9.57031C13.5078 10.2344 13.8594 10.3516 14.0938 10.8203L14.0547 10.8594L11.7109 8.67188C11.7109 8.67188 11.6328 8.59375 11.5938 8.63281C11.5547 8.67188 11.6328 8.75 11.6328 8.75L13.8203 11.0937L13.7813 11.1328C13.3516 10.8203 12.8828 10.7813 12.5312 10.3516C12.1016 9.84375 11.5938 9.84375 11.3594 9.72656C11.125 9.60937 11.125 9.375 11.0469 9.41406C10.9688 9.45313 11.0078 9.6875 11.2813 9.92187C11.5938 10.1562 11.8672 10.0391 12.375 10.625C12.8047 11.1328 13.1953 11.1328 13.5469 11.4453C13.5469 11.4453 13.5469 11.4844 13.5078 11.4844L10.5 10.3906C10.5 10.3906 10.4219 10.3516 10.3828 10.4297C10.3437 10.5078 10.4609 10.5469 10.4609 10.5469L13.3516 11.875V11.9141C12.8438 11.7969 12.375 11.9141 11.9062 11.6797C11.3203 11.3672 10.8125 11.5625 10.5781 11.5625C10.3047 11.5234 10.2266 11.3281 10.1875 11.3672C10.1094 11.4063 10.2656 11.6406 10.6172 11.7578C10.9688 11.8359 11.2031 11.6406 11.9062 11.9922C12.5312 12.3047 12.8437 12.1484 13.3125 12.3047V12.3438L10.1094 12.4609C10.1094 12.4609 9.99219 12.4609 9.99219 12.5391C9.99219 12.6172 10.1094 12.6172 10.1094 12.6172L13.3125 12.7344V12.7734C12.8047 12.8516 12.4141 13.1641 11.8672 13.125C11.2031 13.0469 10.8125 13.4375 10.5781 13.5156C10.3047 13.5937 10.1484 13.4375 10.1484 13.5156C10.1094 13.5937 10.3047 13.75 10.6953 13.7109C11.0859 13.6719 11.1641 13.3984 11.9844 13.4375C12.6875 13.4766 12.9219 13.2031 13.4297 13.2031V13.2422L10.5391 14.5703C10.5391 14.5703 10.4609 14.6094 10.4609 14.6875C10.4609 14.7656 10.5781 14.7266 10.5781 14.7266L13.5859 13.6328V13.6719C13.1563 13.9453 12.9219 14.375 12.375 14.5313C11.75 14.7266 11.5156 15.1953 11.3203 15.3906C11.125 15.5859 10.8906 15.4687 10.8906 15.5469C10.8906 15.625 11.125 15.7031 11.4375 15.5078C11.75 15.3125 11.75 15 12.5312 14.7656C13.1953 14.5703 13.3125 14.2187 13.7813 13.9844L13.8203 14.0234L11.6328 16.3672C11.6328 16.3672 11.5547 16.4453 11.5938 16.4844C11.6328 16.5234 11.7109 16.4453 11.7109 16.4453L14.0547 14.2578L14.0938 14.2969C13.7812 14.7266 13.7422 15.1953 13.3125 15.5469C12.8047 15.9766 12.8047 16.4844 12.6875 16.7187C12.5703 16.9531 12.3359 16.9531 12.375 17.0312C12.4141 17.1094 12.6484 17.0703 12.8828 16.7969C13.1172 16.5234 13 16.2109 13.5859 15.7031C14.0938 15.2734 14.0938 14.8828 14.4063 14.5313C14.4063 14.5313 14.4453 14.5312 14.4453 14.5703L13.3516 17.5781C13.3516 17.5781 13.3125 17.6562 13.3906 17.6953C13.4688 17.7344 13.5078 17.6172 13.5078 17.6172L14.8359 14.7266H14.875C14.7578 15.2344 14.875 15.7031 14.6406 16.1719C14.3281 16.7578 14.5234 17.2656 14.4844 17.5C14.4453 17.7734 14.25 17.8516 14.2891 17.8906C14.3281 17.9687 14.5625 17.8125 14.6797 17.4609C14.7578 17.1094 14.5625 16.9141 14.9141 16.1719C15.2266 15.5469 15.0703 15.2344 15.2266 14.7656H15.2656L15.3828 17.9688C15.3828 17.9688 15.3828 18.0859 15.4609 18.0859C15.5391 18.0859 15.5391 17.9688 15.5391 17.9688L15.6563 14.7656H15.6953C15.7734 15.2734 16.0859 15.6641 16.0469 16.2109C15.9688 16.875 16.3594 17.2656 16.4375 17.5C16.5156 17.7734 16.3594 17.9297 16.4375 17.9297C16.5156 17.9688 16.6719 17.7734 16.6328 17.3828C16.5938 17.0313 16.2813 16.9141 16.3594 16.0938C16.3984 15.3906 16.125 15.1562 16.125 14.6484H16.1641L17.4922 17.5391C17.4922 17.5391 17.5313 17.6172 17.6094 17.6172C17.6875 17.5781 17.6484 17.5 17.6484 17.5L16.5156 14.4531H16.5547C16.8281 14.8828 17.2578 15.1172 17.4141 15.6641C17.6094 16.2891 18.0781 16.5234 18.2734 16.7187C18.4687 16.9141 18.3516 17.1484 18.4297 17.1484C18.5078 17.1484 18.5859 16.9141 18.3906 16.6016C18.1953 16.2891 17.8828 16.2891 17.6484 15.5078C17.4531 14.8438 17.1016 14.7266 16.8672 14.2578L16.9062 14.2188L19.25 16.4062C19.25 16.4062 19.3281 16.4844 19.3672 16.4453C19.4063 16.4062 19.3281 16.3281 19.3281 16.3281L17.1406 13.9844L17.1797 13.9453C17.6094 14.2578 18.0781 14.2969 18.4297 14.7266C18.8594 15.2344 19.3672 15.2344 19.6016 15.3516C19.8359 15.4687 19.8359 15.7031 19.9141 15.6641C19.9922 15.625 19.9531 15.3906 19.6797 15.1562C19.3672 14.9219 19.0938 15.0391 18.5859 14.4531C18.1563 13.9453 17.7656 13.9453 17.4141 13.5937C17.4141 13.5937 17.4141 13.5547 17.4531 13.5547L20.4609 14.6484C20.4609 14.6484 20.5391 14.6875 20.5781 14.6094C20.6172 14.5313 20.5 14.4922 20.5 14.4922L17.6094 13.1641V13.125C18.1172 13.2422 18.5859 13.125 19.0547 13.3594C19.6406 13.6719 20.1484 13.4766 20.3828 13.4766C20.6563 13.5156 20.7344 13.7109 20.7734 13.6719C20.8516 13.6328 20.6953 13.3984 20.3438 13.2812C19.9922 13.2031 19.7578 13.3984 19.0547 13.0469C18.4297 12.7344 18.1172 12.8906 17.6484 12.7344V12.6953L20.8516 12.5781C20.8516 12.5781 20.9688 12.5781 20.9688 12.5C20.9688 12.4219 20.8516 12.4219 20.8516 12.4219Z" fill="#F6B40E"/>
<path d="M16.6719 12.2266C16.5547 12.1094 16.3984 12.0312 16.2422 12.0312C16.0859 12.0312 15.9688 12.1094 15.8516 12.2266C16.0469 12.3828 16.3984 12.3828 16.6719 12.2266ZM16.5547 12.1875C16.4766 12.2656 16.3984 12.3047 16.3203 12.3047C16.3594 12.2656 16.3984 12.2266 16.3984 12.1875C16.3984 12.1484 16.3594 12.1094 16.3203 12.0703C16.4375 12.1094 16.5156 12.1484 16.5547 12.1875ZM16.125 12.0703C16.0859 12.1094 16.0859 12.1484 16.0859 12.1875C16.0859 12.2266 16.125 12.3047 16.1641 12.3047C16.0859 12.3047 16.0078 12.2656 15.9297 12.1875C16.0078 12.1484 16.0469 12.1094 16.125 12.0703Z" fill="#85340A"/>
<path d="M16.2812 11.9141C16.0469 11.9141 16.0078 11.9531 15.9297 12.0312C15.8125 12.1094 15.7734 12.1094 15.7734 12.1094C15.7734 12.1094 15.7734 12.1875 15.8125 12.1484C15.8516 12.1484 15.9297 12.1094 16.0078 12.0312C16.125 11.9531 16.2031 11.9531 16.3203 11.9531C16.6328 11.9531 16.7891 12.1875 16.8281 12.1875C16.8672 12.1875 16.5937 11.9141 16.2812 11.9141Z" fill="#85340A"/>
<path d="M15.6171 11.8751C15.5781 11.9532 15.5781 11.9923 15.5781 12.0704C15.539 12.3048 15.5781 12.5782 15.7343 12.8517C15.7343 12.8517 15.7734 12.8126 15.8124 12.8126C15.6562 12.6173 15.6171 12.3829 15.6171 12.1876C15.6171 12.0704 15.6952 11.9923 15.7343 11.9142C16.0077 11.6798 16.4765 11.7189 16.8671 12.0314C16.5156 11.5236 16.0077 11.5626 15.6171 11.8751Z" fill="#85340A"/>
<path d="M16.0078 12.3828C15.8906 12.3047 15.8516 12.2656 15.8125 12.2656C15.7734 12.2656 15.7734 12.3047 15.9297 12.3828C16.0859 12.4609 16.3984 12.5 16.6719 12.2656C16.3594 12.4219 16.125 12.4219 16.0078 12.3828ZM15.8125 13.0078C15.7734 13.0078 15.7344 12.9687 15.6953 12.9297C15.6953 12.9687 15.6172 13.0469 15.5 13.0469C15.3828 13.0469 15.3047 12.9297 15.3047 12.9297C15.3047 12.9687 15.2656 13.0078 15.1875 13.0078C15.1484 13.0078 15.0703 12.9688 15.0703 12.8906C15.0703 12.8516 15.1094 12.8125 15.1484 12.8125C15.0703 12.8125 15.0312 12.8906 15.0312 12.9688C15.0312 13.0469 15.1094 13.125 15.1875 13.125C15.2266 13.125 15.2656 13.0859 15.3047 13.0469C15.3437 13.0859 15.4609 13.0859 15.5 13.0859H15.5391C15.5781 13.0859 15.6562 13.0859 15.7344 13.0469C15.7734 13.0859 15.8125 13.125 15.8516 13.125C15.9297 13.125 16.0078 13.0469 16.0078 12.9688C16.0078 12.8906 15.9687 12.8516 15.8906 12.8125C15.9297 12.8125 15.9688 12.8516 15.9688 12.8906C15.9297 12.9688 15.8906 13.0078 15.8125 13.0078ZM15.5 13.3594C15.5781 13.3594 15.6563 13.2813 15.7734 13.3594C15.8906 13.4375 15.9688 13.4766 16.0469 13.5156C15.8906 13.3984 15.8125 13.2813 15.6563 13.2813C15.6172 13.2813 15.5391 13.2812 15.5 13.3203C15.4219 13.2812 15.3828 13.2813 15.3437 13.2813C15.1875 13.2813 15.1094 13.4375 14.9531 13.5156C15.0312 13.4766 15.1094 13.3984 15.2266 13.3594C15.3437 13.3203 15.4219 13.3594 15.5 13.3594Z" fill="#85340A"/>
<path d="M15.5 13.4767C15.4219 13.4767 15.3828 13.4376 15.2656 13.4767C15.1875 13.4767 15.1094 13.4767 14.9922 13.5157H14.9531C15.3047 13.5548 15.1484 13.7501 15.5 13.7501C15.8516 13.7501 15.6953 13.5548 16.0469 13.5157H15.9688C15.6563 13.3986 15.6172 13.4767 15.5 13.4767ZM15.5 13.672C15.2266 13.672 15.3047 13.4767 14.9922 13.4767C15.3047 13.3986 15.3437 13.5157 15.5 13.5157C15.6172 13.5157 15.6953 13.4376 16.0078 13.4767C15.6953 13.5157 15.7734 13.672 15.5 13.672ZM15.5 13.7501C15.3437 13.7501 15.1875 13.8673 15.1875 14.0626C15.2266 13.9064 15.3437 13.8282 15.5 13.8282C15.6563 13.8282 15.7734 13.9454 15.8125 14.0626C15.8125 13.8673 15.6563 13.7501 15.5 13.7501ZM15.2656 11.9142C15.3437 11.9923 15.3828 12.1095 15.3828 12.1876C15.4219 12.3829 15.3438 12.5782 15.1875 12.8126C15.1875 12.8126 15.2266 12.8126 15.2656 12.8517C15.3828 12.5782 15.4609 12.3439 15.4219 12.0704C15.4219 11.9923 15.3828 11.9532 15.3828 11.8751C15.0313 11.5626 14.5234 11.5236 14.1328 12.0314C14.5234 11.6798 15.0312 11.6407 15.2656 11.9142Z" fill="#85340A"/>
<path d="M15.0313 12.0703C15.1485 12.1484 15.1875 12.1875 15.2266 12.1875C15.2657 12.1875 15.2657 12.1484 15.2657 12.1484C15.2657 12.1484 15.1875 12.1484 15.1094 12.0703C14.9922 11.9922 14.9532 11.9531 14.7579 11.9531C14.4063 11.9531 14.211 12.2266 14.25 12.2266C14.2891 12.2266 14.4454 11.9922 14.7579 11.9922C14.836 11.9922 14.9532 11.9922 15.0313 12.0703Z" fill="#85340A"/>
<path d="M14.3672 12.2266C14.4453 12.3047 14.6016 12.3438 14.7578 12.3438C14.875 12.3438 15.0312 12.3047 15.1484 12.2266C15.0312 12.1094 14.875 12.0312 14.7187 12.0312C14.6016 12.0312 14.4453 12.1094 14.3672 12.2266ZM14.4453 12.2266C14.5234 12.1484 14.6016 12.0703 14.6797 12.0703C14.6406 12.1094 14.6016 12.1484 14.6016 12.1875C14.6016 12.2656 14.6406 12.3047 14.6797 12.3047C14.6016 12.3438 14.4844 12.3047 14.4453 12.2266ZM15.0312 12.1875C14.9922 12.2266 14.9141 12.2656 14.8359 12.3047C14.875 12.2656 14.875 12.2266 14.875 12.1875C14.875 12.1484 14.8359 12.1094 14.8359 12.0703C14.9531 12.1094 15.0312 12.1484 15.0312 12.1875Z" fill="#85340A"/>
<path d="M15.2266 12.2656C15.1875 12.2656 15.1484 12.3047 15.0312 12.3828C14.9141 12.4609 14.6797 12.4609 14.3672 12.3047C14.6406 12.5391 14.9531 12.5 15.1094 12.4219C15.2656 12.3047 15.2656 12.2656 15.2266 12.2656Z" fill="#85340A"/>
</g>
<defs>
<filter id="filter0_dd_496_6789" x="0" y="1" width="31" height="31" filterUnits="userSpaceOnUse" color-interpolation-filters="sRGB">
<feFlood flood-opacity="0" result="BackgroundImageFix"/>
<feColorMatrix in="SourceAlpha" type="matrix" values="0 0 0 0 0 0 0 0 0 0 0 0 0 0 0 0 0 0 127 0" result="hardAlpha"/>
<feOffset dy="4"/>
<feGaussianBlur stdDeviation="2"/>
<feComposite in2="hardAlpha" operator="out"/>
<feColorMatrix type="matrix" values="0 0 0 0 0 0 0 0 0 0 0 0 0 0 0 0 0 0 0.25 0"/>
<feBlend mode="normal" in2="BackgroundImageFix" result="effect1_dropShadow_496_6789"/>
<feColorMatrix in="SourceAlpha" type="matrix" values="0 0 0 0 0 0 0 0 0 0 0 0 0 0 0 0 0 0 127 0" result="hardAlpha"/>
<feOffset dy="4"/>
<feGaussianBlur stdDeviation="2"/>
<feComposite in2="hardAlpha" operator="out"/>
<feColorMatrix type="matrix" values="0 0 0 0 0 0 0 0 0 0 0 0 0 0 0 0 0 0 0.25 0"/>
<feBlend mode="normal" in2="effect1_dropShadow_496_6789" result="effect2_dropShadow_496_6789"/>
<feBlend mode="normal" in="SourceGraphic" in2="effect2_dropShadow_496_6789" result="shape"/>
</filter>
<clipPath id="clip0_496_6789">
<rect width="25" height="25" fill="white" transform="translate(3)"/>
</clipPath>
</defs>
</svg>
