<svg width="25" height="25" viewBox="0 0 25 25" fill="none" xmlns="http://www.w3.org/2000/svg">
<g clip-path="url(#clip0_236_1941)">
<path d="M0.78125 12.5C0.78125 14.8047 1.44531 16.9531 2.57812 18.75H22.3828C23.5156 16.9531 24.1797 14.8047 24.1797 12.5C24.1797 10.1953 23.5156 8.04688 22.3828 6.25H2.57812C1.44531 8.04688 0.78125 10.1953 0.78125 12.5Z" fill="#F9F9F9"/>
<path d="M22.4219 6.25C20.3516 2.96875 16.6797 0.78125 12.5 0.78125C8.32031 0.78125 4.64844 2.96875 2.57812 6.25H22.4219ZM2.57812 18.75C4.64844 22.0312 8.32031 24.2188 12.5 24.2188C16.6797 24.2188 20.3516 22.0312 22.4219 18.75H2.57812Z" fill="#B4D7EE"/>
<path d="M17.8516 12.4219L14.6484 12.3047V12.2656C15.1562 12.1875 15.5469 11.875 16.0938 11.9141C16.7578 11.9922 17.1484 11.6016 17.3828 11.5234C17.6562 11.4453 17.8125 11.6016 17.8125 11.5234C17.8516 11.4453 17.6562 11.2891 17.2656 11.3281C16.9141 11.3672 16.7969 11.6797 15.9766 11.6016C15.2734 11.5625 15.0391 11.8359 14.5313 11.8359V11.7969L17.4219 10.4687C17.4219 10.4687 17.5 10.4297 17.5 10.3516C17.4609 10.2734 17.3828 10.3125 17.3828 10.3125L14.4531 11.4844V11.4453C14.8828 11.1719 15.1172 10.7422 15.6641 10.5859C16.2891 10.3906 16.5234 9.92187 16.7188 9.72656C16.9141 9.53125 17.1484 9.64844 17.1484 9.57031C17.1484 9.49219 16.9141 9.41406 16.6016 9.60938C16.2891 9.80469 16.2891 10.1172 15.5078 10.3516C14.8438 10.5469 14.7266 10.8984 14.2578 11.1328L14.2188 11.0938L16.4062 8.75C16.4062 8.75 16.4844 8.67188 16.4453 8.63281C16.4062 8.59375 16.3281 8.67188 16.3281 8.67188L13.9844 10.8594L13.9453 10.8203C14.2578 10.3906 14.2969 9.92188 14.7266 9.57031C15.2344 9.14062 15.2344 8.63281 15.3516 8.39844C15.4688 8.16406 15.7031 8.16406 15.6641 8.08594C15.625 8.00781 15.3906 8.04687 15.1562 8.32031C14.9219 8.63281 15.0391 8.90625 14.4531 9.41406C13.9453 9.84375 13.9453 10.2344 13.6328 10.5859C13.6328 10.5859 13.5938 10.5859 13.5938 10.5469L14.6875 7.53906C14.6875 7.53906 14.7266 7.46094 14.6484 7.42188C14.5703 7.38281 14.5313 7.5 14.5313 7.5L13.2031 10.3906H13.1641C13.2813 9.88281 13.1641 9.41406 13.3984 8.94531C13.7109 8.35937 13.5156 7.85156 13.5156 7.61719C13.5547 7.34375 13.75 7.26562 13.7109 7.22656C13.6719 7.14844 13.4375 7.30469 13.3203 7.65625C13.2422 8.00781 13.4375 8.24219 13.0859 8.94531C12.7734 9.57031 12.9297 9.88281 12.7734 10.3516H12.7344L12.6172 7.14844C12.6172 7.14844 12.6172 7.03125 12.5391 7.03125C12.4609 7.03125 12.4609 7.14844 12.4609 7.14844L12.3438 10.3516H12.3047C12.2266 9.84375 11.9141 9.45312 11.9531 8.90625C12.0313 8.24219 11.6406 7.85156 11.5625 7.61719C11.4844 7.38281 11.6406 7.1875 11.5625 7.1875C11.4844 7.14844 11.3281 7.34375 11.3672 7.73437C11.4063 8.08594 11.7188 8.20313 11.6406 9.02344C11.6016 9.72656 11.875 9.96094 11.875 10.4687H11.8359L10.5078 7.57812C10.5078 7.57812 10.4688 7.5 10.3906 7.5C10.3125 7.53906 10.3516 7.61719 10.3516 7.61719L11.4453 10.625H11.4063C11.1328 10.1953 10.7031 9.96094 10.5469 9.41406C10.3516 8.78906 9.88281 8.55469 9.6875 8.35937C9.49219 8.16406 9.60938 7.92969 9.53125 7.92969C9.45312 7.92969 9.375 8.16406 9.57031 8.47656C9.76563 8.78906 10.0781 8.78906 10.3125 9.57031C10.5078 10.2344 10.8594 10.3516 11.0938 10.8203L11.0547 10.8594L8.71094 8.67188C8.71094 8.67188 8.63281 8.59375 8.59375 8.63281C8.55469 8.67188 8.63281 8.75 8.63281 8.75L10.8203 11.0938L10.7813 11.1328C10.3516 10.8203 9.88281 10.7812 9.53125 10.3516C9.10156 9.84375 8.59375 9.84375 8.35938 9.72656C8.125 9.60937 8.125 9.375 8.04688 9.41406C7.96875 9.45313 8.00781 9.6875 8.28125 9.92187C8.59375 10.1562 8.86719 10.0391 9.375 10.625C9.80469 11.1328 10.1953 11.1328 10.5469 11.4453C10.5469 11.4453 10.5469 11.4844 10.5078 11.4844L7.5 10.3906C7.5 10.3906 7.42188 10.3516 7.38281 10.4297C7.34375 10.5078 7.46094 10.5469 7.46094 10.5469L10.3516 11.875V11.9141C9.84375 11.7969 9.375 11.9141 8.90625 11.6797C8.32031 11.3672 7.8125 11.5625 7.57812 11.5625C7.30469 11.5234 7.22656 11.3281 7.1875 11.3672C7.10938 11.4062 7.26563 11.6406 7.61719 11.7578C7.96875 11.8359 8.20312 11.6406 8.90625 11.9922C9.53125 12.3047 9.84375 12.1484 10.3125 12.3047V12.3438L7.10938 12.4609C7.10938 12.4609 6.99219 12.4609 6.99219 12.5391C6.99219 12.6172 7.10938 12.6172 7.10938 12.6172L10.3125 12.7344V12.7734C9.80469 12.8516 9.41406 13.1641 8.86719 13.125C8.20313 13.0469 7.8125 13.4375 7.57812 13.5156C7.30469 13.5937 7.14844 13.4375 7.14844 13.5156C7.10937 13.5937 7.30469 13.75 7.69531 13.7109C8.08594 13.6719 8.16406 13.3984 8.98438 13.4375C9.6875 13.4766 9.92188 13.2031 10.4297 13.2031V13.2422L7.53906 14.5703C7.53906 14.5703 7.46094 14.6094 7.46094 14.6875C7.46094 14.7656 7.57812 14.7266 7.57812 14.7266L10.5859 13.6328V13.6719C10.1563 13.9453 9.92188 14.375 9.375 14.5313C8.75 14.7266 8.51562 15.1953 8.32031 15.3906C8.125 15.5859 7.89063 15.4688 7.89063 15.5469C7.89063 15.625 8.125 15.7031 8.4375 15.5078C8.75 15.3125 8.75 15 9.53125 14.7656C10.1953 14.5703 10.3125 14.2187 10.7813 13.9844L10.8203 14.0234L8.63281 16.3672C8.63281 16.3672 8.55469 16.4453 8.59375 16.4844C8.63281 16.5234 8.71094 16.4453 8.71094 16.4453L11.0547 14.2578L11.0938 14.2969C10.7812 14.7266 10.7422 15.1953 10.3125 15.5469C9.80469 15.9766 9.80469 16.4844 9.6875 16.7188C9.57031 16.9531 9.33594 16.9531 9.375 17.0312C9.41406 17.1094 9.64844 17.0703 9.88281 16.7969C10.1172 16.5234 10 16.2109 10.5859 15.7031C11.0938 15.2734 11.0938 14.8828 11.4063 14.5313C11.4063 14.5313 11.4453 14.5312 11.4453 14.5703L10.3516 17.5781C10.3516 17.5781 10.3125 17.6562 10.3906 17.6953C10.4688 17.7344 10.5078 17.6172 10.5078 17.6172L11.8359 14.7266H11.875C11.7578 15.2344 11.875 15.7031 11.6406 16.1719C11.3281 16.7578 11.5234 17.2656 11.4844 17.5C11.4453 17.7734 11.25 17.8516 11.2891 17.8906C11.3281 17.9688 11.5625 17.8125 11.6797 17.4609C11.7578 17.1094 11.5625 16.9141 11.9141 16.1719C12.2266 15.5469 12.0703 15.2344 12.2266 14.7656H12.2656L12.3828 17.9688C12.3828 17.9688 12.3828 18.0859 12.4609 18.0859C12.5391 18.0859 12.5391 17.9688 12.5391 17.9688L12.6563 14.7656H12.6953C12.7734 15.2734 13.0859 15.6641 13.0469 16.2109C12.9688 16.875 13.3594 17.2656 13.4375 17.5C13.5156 17.7734 13.3594 17.9297 13.4375 17.9297C13.5156 17.9688 13.6719 17.7734 13.6328 17.3828C13.5938 17.0312 13.2813 16.9141 13.3594 16.0938C13.3984 15.3906 13.125 15.1562 13.125 14.6484H13.1641L14.4922 17.5391C14.4922 17.5391 14.5313 17.6172 14.6094 17.6172C14.6875 17.5781 14.6484 17.5 14.6484 17.5L13.5156 14.4531H13.5547C13.8281 14.8828 14.2578 15.1172 14.4141 15.6641C14.6094 16.2891 15.0781 16.5234 15.2734 16.7188C15.4688 16.9141 15.3516 17.1484 15.4297 17.1484C15.5078 17.1484 15.5859 16.9141 15.3906 16.6016C15.1953 16.2891 14.8828 16.2891 14.6484 15.5078C14.4531 14.8438 14.1016 14.7266 13.8672 14.2578L13.9062 14.2188L16.25 16.4062C16.25 16.4062 16.3281 16.4844 16.3672 16.4453C16.4063 16.4062 16.3281 16.3281 16.3281 16.3281L14.1406 13.9844L14.1797 13.9453C14.6094 14.2578 15.0781 14.2969 15.4297 14.7266C15.8594 15.2344 16.3672 15.2344 16.6016 15.3516C16.8359 15.4688 16.8359 15.7031 16.9141 15.6641C16.9922 15.625 16.9531 15.3906 16.6797 15.1562C16.3672 14.9219 16.0938 15.0391 15.5859 14.4531C15.1563 13.9453 14.7656 13.9453 14.4141 13.5937C14.4141 13.5937 14.4141 13.5547 14.4531 13.5547L17.4609 14.6484C17.4609 14.6484 17.5391 14.6875 17.5781 14.6094C17.6172 14.5313 17.5 14.4922 17.5 14.4922L14.6094 13.1641V13.125C15.1172 13.2422 15.5859 13.125 16.0547 13.3594C16.6406 13.6719 17.1484 13.4766 17.3828 13.4766C17.6562 13.5156 17.7344 13.7109 17.7734 13.6719C17.8516 13.6328 17.6953 13.3984 17.3438 13.2812C16.9922 13.2031 16.7578 13.3984 16.0547 13.0469C15.4297 12.7344 15.1172 12.8906 14.6484 12.7344V12.6953L17.8516 12.5781C17.8516 12.5781 17.9688 12.5781 17.9688 12.5C17.9688 12.4219 17.8516 12.4219 17.8516 12.4219Z" fill="#F6B40E"/>
<path d="M13.6719 12.2266C13.5547 12.1094 13.3984 12.0312 13.2422 12.0312C13.0859 12.0312 12.9688 12.1094 12.8516 12.2266C13.0469 12.3828 13.3984 12.3828 13.6719 12.2266ZM13.5547 12.1875C13.4766 12.2656 13.3984 12.3047 13.3203 12.3047C13.3594 12.2656 13.3984 12.2266 13.3984 12.1875C13.3984 12.1484 13.3594 12.1094 13.3203 12.0703C13.4375 12.1094 13.5156 12.1484 13.5547 12.1875ZM13.125 12.0703C13.0859 12.1094 13.0859 12.1484 13.0859 12.1875C13.0859 12.2266 13.125 12.3047 13.1641 12.3047C13.0859 12.3047 13.0078 12.2656 12.9297 12.1875C13.0078 12.1484 13.0469 12.1094 13.125 12.0703Z" fill="#85340A"/>
<path d="M13.2812 11.9141C13.0469 11.9141 13.0078 11.9531 12.9297 12.0312C12.8125 12.1094 12.7734 12.1094 12.7734 12.1094C12.7734 12.1094 12.7734 12.1875 12.8125 12.1484C12.8516 12.1484 12.9297 12.1094 13.0078 12.0312C13.125 11.9531 13.2031 11.9531 13.3203 11.9531C13.6328 11.9531 13.7891 12.1875 13.8281 12.1875C13.8672 12.1875 13.5937 11.9141 13.2812 11.9141Z" fill="#85340A"/>
<path d="M12.6172 11.875C12.5782 11.9531 12.5782 11.9922 12.5782 12.0703C12.5391 12.3047 12.5782 12.5781 12.7344 12.8516C12.7344 12.8516 12.7735 12.8125 12.8126 12.8125C12.6563 12.6172 12.6172 12.3828 12.6172 12.1875C12.6172 12.0703 12.6954 11.9922 12.7344 11.9141C13.0079 11.6797 13.4766 11.7187 13.8672 12.0312C13.5157 11.5234 13.0079 11.5625 12.6172 11.875Z" fill="#85340A"/>
<path d="M13.0078 12.3828C12.8906 12.3047 12.8516 12.2656 12.8125 12.2656C12.7734 12.2656 12.7734 12.3047 12.9297 12.3828C13.0859 12.4609 13.3984 12.5 13.6719 12.2656C13.3594 12.4219 13.125 12.4219 13.0078 12.3828ZM12.8125 13.0078C12.7734 13.0078 12.7344 12.9687 12.6953 12.9297C12.6953 12.9687 12.6172 13.0469 12.5 13.0469C12.3828 13.0469 12.3047 12.9297 12.3047 12.9297C12.3047 12.9687 12.2656 13.0078 12.1875 13.0078C12.1484 13.0078 12.0703 12.9688 12.0703 12.8906C12.0703 12.8516 12.1094 12.8125 12.1484 12.8125C12.0703 12.8125 12.0312 12.8906 12.0312 12.9688C12.0312 13.0469 12.1094 13.125 12.1875 13.125C12.2266 13.125 12.2656 13.0859 12.3047 13.0469C12.3437 13.0859 12.4609 13.0859 12.5 13.0859H12.5391C12.5781 13.0859 12.6562 13.0859 12.7344 13.0469C12.7734 13.0859 12.8125 13.125 12.8516 13.125C12.9297 13.125 13.0078 13.0469 13.0078 12.9688C13.0078 12.8906 12.9687 12.8516 12.8906 12.8125C12.9297 12.8125 12.9688 12.8516 12.9688 12.8906C12.9297 12.9688 12.8906 13.0078 12.8125 13.0078ZM12.5 13.3594C12.5781 13.3594 12.6563 13.2813 12.7734 13.3594C12.8906 13.4375 12.9688 13.4766 13.0469 13.5156C12.8906 13.3984 12.8125 13.2813 12.6563 13.2813C12.6172 13.2813 12.5391 13.2812 12.5 13.3203C12.4219 13.2812 12.3828 13.2813 12.3437 13.2813C12.1875 13.2813 12.1094 13.4375 11.9531 13.5156C12.0312 13.4766 12.1094 13.3984 12.2266 13.3594C12.3437 13.3203 12.4219 13.3594 12.5 13.3594Z" fill="#85340A"/>
<path d="M12.5 13.4766C12.4219 13.4766 12.3828 13.4375 12.2656 13.4766C12.1875 13.4766 12.1094 13.4766 11.9922 13.5156H11.9531C12.3047 13.5547 12.1484 13.75 12.5 13.75C12.8516 13.75 12.6953 13.5547 13.0469 13.5156H12.9688C12.6563 13.3984 12.6172 13.4766 12.5 13.4766ZM12.5 13.6719C12.2266 13.6719 12.3047 13.4766 11.9922 13.4766C12.3047 13.3984 12.3438 13.5156 12.5 13.5156C12.6172 13.5156 12.6953 13.4375 13.0078 13.4766C12.6953 13.5156 12.7734 13.6719 12.5 13.6719ZM12.5 13.75C12.3438 13.75 12.1875 13.8672 12.1875 14.0625C12.2266 13.9062 12.3438 13.8281 12.5 13.8281C12.6562 13.8281 12.7734 13.9453 12.8125 14.0625C12.8125 13.8672 12.6562 13.75 12.5 13.75ZM12.2656 11.9141C12.3437 11.9922 12.3828 12.1094 12.3828 12.1875C12.4219 12.3828 12.3438 12.5781 12.1875 12.8125C12.1875 12.8125 12.2266 12.8125 12.2656 12.8516C12.3828 12.5781 12.4609 12.3437 12.4219 12.0703C12.4219 11.9922 12.3828 11.9531 12.3828 11.875C12.0313 11.5625 11.5234 11.5234 11.1328 12.0312C11.5234 11.6797 12.0312 11.6406 12.2656 11.9141Z" fill="#85340A"/>
<path d="M12.0313 12.0703C12.1485 12.1484 12.1875 12.1875 12.2266 12.1875C12.2657 12.1875 12.2657 12.1484 12.2657 12.1484C12.2657 12.1484 12.1875 12.1484 12.1094 12.0703C11.9922 11.9922 11.9532 11.9531 11.7579 11.9531C11.4063 11.9531 11.211 12.2266 11.25 12.2266C11.2891 12.2266 11.4454 11.9922 11.7579 11.9922C11.836 11.9922 11.9532 11.9922 12.0313 12.0703Z" fill="#85340A"/>
<path d="M11.3672 12.2266C11.4453 12.3047 11.6016 12.3438 11.7578 12.3438C11.875 12.3438 12.0312 12.3047 12.1484 12.2266C12.0312 12.1094 11.875 12.0312 11.7187 12.0312C11.6016 12.0312 11.4453 12.1094 11.3672 12.2266ZM11.4453 12.2266C11.5234 12.1484 11.6016 12.0703 11.6797 12.0703C11.6406 12.1094 11.6016 12.1484 11.6016 12.1875C11.6016 12.2656 11.6406 12.3047 11.6797 12.3047C11.6016 12.3438 11.4844 12.3047 11.4453 12.2266ZM12.0312 12.1875C11.9922 12.2266 11.9141 12.2656 11.8359 12.3047C11.875 12.2656 11.875 12.2266 11.875 12.1875C11.875 12.1484 11.8359 12.1094 11.8359 12.0703C11.9531 12.1094 12.0312 12.1484 12.0312 12.1875Z" fill="#85340A"/>
<path d="M12.2266 12.2656C12.1875 12.2656 12.1484 12.3047 12.0312 12.3828C11.9141 12.4609 11.6797 12.4609 11.3672 12.3047C11.6406 12.5391 11.9531 12.5 12.1094 12.4219C12.2656 12.3047 12.2656 12.2656 12.2266 12.2656Z" fill="#85340A"/>
</g>
<defs>
<clipPath id="clip0_236_1941">
<rect width="25" height="25" fill="white"/>
</clipPath>
</defs>
</svg>
