<svg width="25" height="25" viewBox="0 0 25 25" fill="none" xmlns="http://www.w3.org/2000/svg">
<g clip-path="url(#clip0_236_1985)">
<path d="M0.664062 12.5C0.664062 17.6172 3.94531 21.9531 8.47656 23.5547V1.44531C3.94531 3.04688 0.664062 7.38281 0.664062 12.5Z" fill="#75A843"/>
<path d="M24.1016 12.5C24.1016 7.38281 20.8203 3.04688 16.2891 1.44531V23.5547C20.8594 21.9531 24.1016 17.6172 24.1016 12.5Z" fill="#ED4C5C"/>
<path d="M8.47656 23.5547C9.6875 23.9844 11.0156 24.2188 12.3828 24.2188C13.75 24.2188 15.0781 23.9844 16.2891 23.5547V1.44531C15.0781 1.01563 13.75 0.78125 12.3828 0.78125C11.0156 0.78125 9.6875 1.01563 8.47656 1.44531V23.5547Z" fill="white"/>
</g>
<defs>
<clipPath id="clip0_236_1985">
<rect width="25" height="25" fill="white"/>
</clipPath>
</defs>
</svg>
