<svg width="433" height="30" viewBox="0 0 433 30" fill="none" xmlns="http://www.w3.org/2000/svg">
<g filter="url(#filter0_d_185_1020)">
<path d="M29.5 0H0V648H407C407 648 397.357 642.441 397 636.5C396.616 630.106 407 623.5 407 623.5V594C407 594 397.465 588.433 397 582.5C396.487 575.959 407 569 407 569V540C407 540 397.732 535.891 396.5 530.5C394.907 523.529 407 515.5 407 515.5V486C407 486 397.203 480.897 396.5 475C395.691 468.214 407 461 407 461V432C407 432 396.626 426.226 396.5 420C396.371 413.626 407 407.5 407 407.5V378C407 378 397.697 373.12 397 367.5C396.192 360.989 407 354 407 354V324C407 324 397.357 318.441 397 312.5C396.616 306.106 407 299.5 407 299.5V269.5C407 269.5 396.872 263.599 397 257.5C397.125 251.55 407 246 407 246V215C407 215 398.516 211.766 397 207C394.865 200.291 407 192 407 192V161.5C407 161.5 398.482 157.906 397 153C394.917 146.104 407 137.5 407 137.5V108C407 108 397.357 102.441 397 96.5C396.616 90.1065 407 83.5 407 83.5V54C407 54 397.961 48.6573 397.5 43C396.99 36.7328 407 30 407 30V0H377C377 0 372.266 9.88655 366.5 10.5C360.011 11.1904 353.5 0 353.5 0H323.5C323.5 0 317.37 10.7633 311 10.5C304.924 10.2488 299.5 0 299.5 0H269.5C269.5 0 263.021 10.7572 256.5 10.5C250.278 10.2546 244.5 0 244.5 0H215.5C215.5 0 210.08 10.3714 204 10.5C197.774 10.6317 192 0 192 0H161C161 0 155.918 10.0092 150 10.5C143.496 11.0393 137 0 137 0H107.5C107.5 0 101.727 10.5 95.5 10.5C89.273 10.5 83.5 0 83.5 0H53.5C53.5 0 47.0036 11.0393 40.5 10.5C34.5816 10.0092 29.5 0 29.5 0Z" fill="#DAD9D5"/>
</g>
<defs>
<filter id="filter0_d_185_1020" x="0" y="0" width="416" height="656" filterUnits="userSpaceOnUse" color-interpolation-filters="sRGB">
<feFlood flood-opacity="0" result="BackgroundImageFix"/>
<feColorMatrix in="SourceAlpha" type="matrix" values="0 0 0 0 0 0 0 0 0 0 0 0 0 0 0 0 0 0 127 0" result="hardAlpha"/>
<feOffset dx="5" dy="4"/>
<feGaussianBlur stdDeviation="2"/>
<feComposite in2="hardAlpha" operator="out"/>
<feColorMatrix type="matrix" values="0 0 0 0 0 0 0 0 0 0 0 0 0 0 0 0 0 0 0.65 0"/>
<feBlend mode="normal" in2="BackgroundImageFix" result="effect1_dropShadow_185_1020"/>
<feBlend mode="normal" in="SourceGraphic" in2="effect1_dropShadow_185_1020" result="shape"/>
</filter>
</defs>
</svg>
