<svg width="433" height="108" viewBox="0 0 433 108" fill="none" xmlns="http://www.w3.org/2000/svg">
<g filter="url(#filter0_d_185_1020)">
<path d="M29.5 -30H0V618H407C407 618 397.357 612.441 397 606.5C396.616 600.106 407 593.5 407 593.5V564C407 564 397.465 558.433 397 552.5C396.487 545.959 407 539 407 539V510C407 510 397.732 505.891 396.5 500.5C394.907 493.529 407 485.5 407 485.5V456C407 456 397.203 450.897 396.5 445C395.691 438.214 407 431 407 431V402C407 402 396.626 396.226 396.5 390C396.371 383.626 407 377.5 407 377.5V348C407 348 397.697 343.12 397 337.5C396.192 330.989 407 324 407 324V294C407 294 397.357 288.441 397 282.5C396.616 276.106 407 269.5 407 269.5V239.5C407 239.5 396.872 233.599 397 227.5C397.125 221.55 407 216 407 216V185C407 185 398.516 181.766 397 177C394.865 170.291 407 162 407 162V131.5C407 131.5 398.482 127.906 397 123C394.917 116.104 407 107.5 407 107.5V78C407 78 397.357 72.4408 397 66.5C396.616 60.1065 407 53.5 407 53.5V24C407 24 397.961 18.6573 397.5 13C396.99 6.73283 407 0 407 0V-30H377C377 -30 372.266 -20.1135 366.5 -19.5C360.011 -18.8096 353.5 -30 353.5 -30H323.5C323.5 -30 317.37 -19.2367 311 -19.5C304.924 -19.7512 299.5 -30 299.5 -30H269.5C269.5 -30 263.021 -19.2428 256.5 -19.5C250.278 -19.7454 244.5 -30 244.5 -30H215.5C215.5 -30 210.08 -19.6286 204 -19.5C197.774 -19.3683 192 -30 192 -30H161C161 -30 155.918 -19.9908 150 -19.5C143.496 -18.9607 137 -30 137 -30H107.5C107.5 -30 101.727 -19.5 95.5 -19.5C89.273 -19.5 83.5 -30 83.5 -30H53.5C53.5 -30 47.0036 -18.9607 40.5 -19.5C34.5816 -19.9908 29.5 -30 29.5 -30Z" fill="#DAD9D5"/>
</g>
<defs>
<filter id="filter0_d_185_1020" x="0" y="-30" width="416" height="656" filterUnits="userSpaceOnUse" color-interpolation-filters="sRGB">
<feFlood flood-opacity="0" result="BackgroundImageFix"/>
<feColorMatrix in="SourceAlpha" type="matrix" values="0 0 0 0 0 0 0 0 0 0 0 0 0 0 0 0 0 0 127 0" result="hardAlpha"/>
<feOffset dx="5" dy="4"/>
<feGaussianBlur stdDeviation="2"/>
<feComposite in2="hardAlpha" operator="out"/>
<feColorMatrix type="matrix" values="0 0 0 0 0 0 0 0 0 0 0 0 0 0 0 0 0 0 0.65 0"/>
<feBlend mode="normal" in2="BackgroundImageFix" result="effect1_dropShadow_185_1020"/>
<feBlend mode="normal" in="SourceGraphic" in2="effect1_dropShadow_185_1020" result="shape"/>
</filter>
</defs>
</svg>
