<svg width="33" height="33" viewBox="0 0 33 33" fill="none" xmlns="http://www.w3.org/2000/svg">
<g filter="url(#filter0_d_490_6266)">
<circle cx="16.5" cy="12.5" r="12" stroke="#555555" shape-rendering="crispEdges"/>
</g>
<path d="M20.1465 19.4268V20.5H12.8535V19.4268H20.1465ZM11.3506 18.8047C11.4041 18.9121 11.4741 19.0122 11.5605 19.0986C11.6468 19.1848 11.7464 19.2542 11.8535 19.3076V20.4395C11.4587 20.3469 11.0932 20.1487 10.8018 19.8574C10.5102 19.5658 10.3112 19.1998 10.2188 18.8047H11.3506ZM22.7812 18.8047C22.6888 19.1998 22.4898 19.5658 22.1982 19.8574C21.9068 20.1487 21.5413 20.3469 21.1465 20.4395V19.3076C21.2536 19.2542 21.3532 19.1848 21.4395 19.0986C21.5259 19.0122 21.5959 18.9121 21.6494 18.8047H22.7812ZM22.8418 13.5518V17.8047H21.7686V12.4785L22.8418 13.5518ZM11.2314 17.8047H10.1582V13.5518L11.2314 12.4785V17.8047ZM8.81836 12.9893C8.7591 12.9628 8.70402 12.9266 8.65723 12.8799C8.61028 12.8329 8.57435 12.7773 8.54785 12.7178L8.81836 12.9893ZM24.4512 12.7178C24.4247 12.7771 24.3896 12.833 24.3428 12.8799C24.2958 12.9269 24.2402 12.9628 24.1807 12.9893L24.4512 12.7178ZM10.9541 11.3418L10.1582 12.1377V11.3418H10.9541ZM22.8418 11.3418V12.1377L22.0459 11.3418H22.8418ZM9.1582 11.9141L9.00977 11.7666L9.1582 11.6191V11.9141ZM23.9893 11.7666L23.8418 11.9141V11.6191L23.9893 11.7666ZM22.3047 10.3047C22.3706 10.3047 22.4356 10.3182 22.4971 10.3418H22.1123C22.1738 10.3181 22.2387 10.3047 22.3047 10.3047ZM10.6953 10.3047C10.7619 10.3047 10.8268 10.3183 10.8877 10.3418H10.5029C10.5638 10.3184 10.6288 10.3047 10.6953 10.3047ZM15.792 5.03613L15.4131 5.41602L15.0596 5.76953L15.793 6.50293L12.0908 10.2041C12.0154 10.0389 11.9121 9.88576 11.7812 9.75488C11.6501 9.62385 11.4975 9.51976 11.332 9.44434L15.7666 5.01074L15.792 5.03613ZM21.667 9.44434C21.5004 9.52038 21.3485 9.62522 21.2188 9.75488C21.0889 9.8847 20.9843 10.0374 20.9082 10.2041L17.207 6.50293L17.9404 5.76953L17.207 5.03613L17.2334 5.01074L21.667 9.44434ZM16.5254 5.76953L16.5 5.7959L16.4736 5.76953L16.499 5.74316H16.5L16.5254 5.76953Z" fill="black" stroke="#555555"/>
<defs>
<filter id="filter0_d_490_6266" x="0" y="0" width="33" height="33" filterUnits="userSpaceOnUse" color-interpolation-filters="sRGB">
<feFlood flood-opacity="0" result="BackgroundImageFix"/>
<feColorMatrix in="SourceAlpha" type="matrix" values="0 0 0 0 0 0 0 0 0 0 0 0 0 0 0 0 0 0 127 0" result="hardAlpha"/>
<feOffset dy="4"/>
<feGaussianBlur stdDeviation="2"/>
<feComposite in2="hardAlpha" operator="out"/>
<feColorMatrix type="matrix" values="0 0 0 0 0 0 0 0 0 0 0 0 0 0 0 0 0 0 0.25 0"/>
<feBlend mode="normal" in2="BackgroundImageFix" result="effect1_dropShadow_490_6266"/>
<feBlend mode="normal" in="SourceGraphic" in2="effect1_dropShadow_490_6266" result="shape"/>
</filter>
</defs>
</svg>
